<?xml version="1.0" encoding="utf-8"?>
<!-- Generator: Adobe Illustrator 17.0.0, SVG Export Plug-In . SVG Version: 6.00 Build 0)  -->
<!DOCTYPE svg PUBLIC "-//W3C//DTD SVG 1.1//EN" "http://www.w3.org/Graphics/SVG/1.1/DTD/svg11.dtd">
<svg version="1.1" id="Layer_1" xmlns="http://www.w3.org/2000/svg" xmlns:xlink="http://www.w3.org/1999/xlink" x="0px" y="0px"
	 width="231px" height="231px" viewBox="0 0 231 231" enable-background="new 0 0 231 231" xml:space="preserve">
<path fill="#00A99D" d="M115.5,0C82.993,0,53.637,13.441,32.65,35.055h150.99v73H0.25C0.093,110.518,0,112.998,0,115.5
	c0,1.864,0.06,3.713,0.148,5.555H183.64v73H30.836C51.927,216.779,82.051,231,115.5,231c63.789,0,115.5-51.711,115.5-115.5
	S179.289,0,115.5,0z"/>
<polygon fill="#00A99D" points="168.64,67.01 155.185,67.01 155.185,53.555 145.095,53.555 145.095,67.01 131.64,67.01 131.64,77.1 
	145.095,77.1 145.095,90.555 155.185,90.555 155.185,77.1 168.64,77.1 "/>
<rect x="131.64" y="152.51" fill="#00A99D" width="37" height="10.091"/>
<path fill="#E5E5E5" d="M115.64,61.055H13.619c-3.716,6.94-6.743,14.304-8.992,22H115.64V61.055z"/>
<path fill="#E5E5E5" d="M115.64,146.555H4.229c2.141,7.686,5.055,15.049,8.657,22H115.64V146.555z"/>
</svg>
